<svg width="1200" height="900" viewBox="0 0 1200 900" fill="none" xmlns="http://www.w3.org/2000/svg"><rect width="1200" height="900" fill="#0A0A0A"/><rect width="1200" height="900" fill="url(#a)"/><path d="M152 609C283 527 396 484 490 480H764C872 480 979 529 1051 609L1106 671H95L152 609Z" fill="#1D1D1D"/><path d="M267 599C342 539 408 510 477 509H748C811 509 881 545 931 599L964 635H235L267 599Z" fill="#D6B37A"/><circle cx="332" cy="662" r="79" fill="#0D0D0D"/><circle cx="332" cy="662" r="42" fill="#2A2A2A"/><circle cx="870" cy="662" r="79" fill="#0D0D0D"/><circle cx="870" cy="662" r="42" fill="#2A2A2A"/><path d="M252 453L433 348H767L938 453" stroke="#F0E7D8" stroke-opacity=".35" stroke-width="12"/><defs><linearGradient id="a" x1="600" y1="0" x2="600" y2="900" gradientUnits="userSpaceOnUse"><stop stop-color="#3A3A3A"/><stop offset="1" stop-color="#0A0A0A"/></linearGradient></defs></svg>
