<svg width="1600" height="1000" viewBox="0 0 1600 1000" fill="none" xmlns="http://www.w3.org/2000/svg">
  <rect width="1600" height="1000" fill="#090909"/>
  <rect width="1600" height="1000" fill="url(#paint0_radial_hero)"/>
  <rect width="1600" height="1000" fill="url(#paint1_linear_hero)"/>
  <path d="M0 760C193 670 350 638 508 660C666 682 859 791 1051 768C1243 745 1399 617 1600 510V1000H0V760Z" fill="url(#paint2_linear_hero)"/>
  <path d="M98 269C315 165 524 133 726 174C928 215 1098 331 1315 302C1402 290 1497 255 1600 197" stroke="rgba(255,255,255,0.2)" stroke-width="2"/>
  <circle cx="1165" cy="212" r="126" fill="url(#paint3_radial_hero)"/>
  <rect x="198" y="130" width="284" height="688" rx="142" stroke="rgba(255,255,255,0.1)" stroke-width="2"/>
  <rect x="1070" y="276" width="246" height="515" rx="123" stroke="rgba(214,179,122,0.32)" stroke-width="2"/>
  <defs>
    <radialGradient id="paint0_radial_hero" cx="0" cy="0" r="1" gradientUnits="userSpaceOnUse" gradientTransform="translate(1077 248) rotate(90) scale(567 840.434)">
      <stop stop-color="#1F2228"/>
      <stop offset="1" stop-color="#090909" stop-opacity="0"/>
    </radialGradient>
    <linearGradient id="paint1_linear_hero" x1="800" y1="0" x2="800" y2="1000" gradientUnits="userSpaceOnUse">
      <stop stop-color="#2F2D2A" stop-opacity="0.34"/>
      <stop offset="1" stop-color="#090909"/>
    </linearGradient>
    <linearGradient id="paint2_linear_hero" x1="800" y1="660" x2="800" y2="1000" gradientUnits="userSpaceOnUse">
      <stop stop-color="#4D4235" stop-opacity="0.1"/>
      <stop offset="1" stop-color="#0A0A0A"/>
    </linearGradient>
    <radialGradient id="paint3_radial_hero" cx="0" cy="0" r="1" gradientUnits="userSpaceOnUse" gradientTransform="translate(1165 212) rotate(90) scale(126)">
      <stop stop-color="#D6B37A" stop-opacity="0.6"/>
      <stop offset="1" stop-color="#D6B37A" stop-opacity="0"/>
    </radialGradient>
  </defs>
</svg>
